<svg id="Layer_1" data-name="Layer 1" xmlns="http://www.w3.org/2000/svg" viewBox="0 0 197.22 50.8"><defs><style>.cls-1{fill:#f0ecd1;}.cls-2{fill:none;stroke:#fff;stroke-miterlimit:10;stroke-width:2px;}.cls-3{opacity:0.6;}</style></defs><rect class="cls-1" x="1" y="1" width="195.22" height="48.8" rx="23.43"/><rect class="cls-2" x="1" y="1" width="195.22" height="48.8" rx="23.43"/><path class="cls-3" d="M20.74,29a1.55,1.55,0,0,0-.38-1.12A4.37,4.37,0,0,0,19,27.12a6.41,6.41,0,0,1-2.62-1.62,3.22,3.22,0,0,1-.79-2.18,3.09,3.09,0,0,1,1.08-2.46,4.12,4.12,0,0,1,2.75-.92,4,4,0,0,1,2,.47,3.16,3.16,0,0,1,1.34,1.32,3.9,3.9,0,0,1,.47,1.94H20.77a2,2,0,0,0-.36-1.29,1.28,1.28,0,0,0-1-.44,1.32,1.32,0,0,0-1,.38,1.44,1.44,0,0,0-.35,1,1.24,1.24,0,0,0,.39.9,4.65,4.65,0,0,0,1.42.84,6,6,0,0,1,2.56,1.57A3.47,3.47,0,0,1,23.2,29a3.13,3.13,0,0,1-1,2.47,4,4,0,0,1-2.73.89,4.7,4.7,0,0,1-2.13-.48,3.67,3.67,0,0,1-1.51-1.38,4.05,4.05,0,0,1-.54-2.12h2.45a2.32,2.32,0,0,0,.4,1.52,1.69,1.69,0,0,0,1.33.47C20.31,30.37,20.74,29.92,20.74,29Z" transform="translate(-0.56 -0.5)"/><path class="cls-3" d="M27.69,30.41c.68,0,1-.45,1-1.33h2.2a3.29,3.29,0,0,1-.9,2.37,3.09,3.09,0,0,1-2.29.91,3.28,3.28,0,0,1-2.65-1.08,4.86,4.86,0,0,1-.93-3.18v-.72a5,5,0,0,1,.9-3.22A3.2,3.2,0,0,1,27.72,23a3,3,0,0,1,2.34.92,3.72,3.72,0,0,1,.87,2.6h-2.2a2.41,2.41,0,0,0-.25-1.16.86.86,0,0,0-.8-.41,1,1,0,0,0-.88.44,3.66,3.66,0,0,0-.28,1.69V28a6.75,6.75,0,0,0,.11,1.53,1.16,1.16,0,0,0,.35.64A1.07,1.07,0,0,0,27.69,30.41Z" transform="translate(-0.56 -0.5)"/><path class="cls-3" d="M36.44,25.48l-.78-.07a1.27,1.27,0,0,0-1.3.85v5.93H32v-9h2.22l.06,1A1.7,1.7,0,0,1,35.82,23a1.73,1.73,0,0,1,.65.11Z" transform="translate(-0.56 -0.5)"/><path class="cls-3" d="M36.82,27.41a4.87,4.87,0,0,1,1-3.2,3.63,3.63,0,0,1,5.34,0,4.84,4.84,0,0,1,1,3.22V28a4.85,4.85,0,0,1-1,3.2,3.26,3.26,0,0,1-2.67,1.16,3.31,3.31,0,0,1-2.69-1.16,5,5,0,0,1-1-3.22Zm2.35.59c0,1.6.43,2.41,1.29,2.41s1.22-.67,1.28-2v-1a3.84,3.84,0,0,0-.34-1.82,1.07,1.07,0,0,0-1-.6,1,1,0,0,0-.93.6,3.84,3.84,0,0,0-.34,1.82Z" transform="translate(-0.56 -0.5)"/><path class="cls-3" d="M47.76,32.19H45.4V19.44h2.36Z" transform="translate(-0.56 -0.5)"/><path class="cls-3" d="M51.79,32.19H49.43V19.44h2.36Z" transform="translate(-0.56 -0.5)"/><path class="cls-3" d="M57.13,32.19V20.1h3.19a4.39,4.39,0,0,1,3.38,1.35A5.27,5.27,0,0,1,65,25.13v2a5.27,5.27,0,0,1-1.26,3.74,4.45,4.45,0,0,1-3.46,1.36Zm2.44-10v8h.73A2.05,2.05,0,0,0,62,29.52a3.88,3.88,0,0,0,.52-2.22V25.2a4.35,4.35,0,0,0-.47-2.36,1.89,1.89,0,0,0-1.61-.7Z" transform="translate(-0.56 -0.5)"/><path class="cls-3" d="M66.09,27.41a4.87,4.87,0,0,1,1-3.2,3.64,3.64,0,0,1,5.35,0,4.89,4.89,0,0,1,1,3.22V28a4.9,4.9,0,0,1-1,3.2,3.68,3.68,0,0,1-5.36,0,4.91,4.91,0,0,1-1-3.22Zm2.36.59c0,1.6.42,2.41,1.28,2.41s1.22-.67,1.28-2v-1a3.72,3.72,0,0,0-.34-1.82,1.06,1.06,0,0,0-1-.6,1,1,0,0,0-.94.6,3.85,3.85,0,0,0-.33,1.82Z" transform="translate(-0.56 -0.5)"/><path class="cls-3" d="M81.11,28.25l.8-5h2.25l-1.86,9h-2L79.08,27l-1.27,5.2h-2l-1.86-9h2.26l.8,5.05,1.19-5.05h1.67Z" transform="translate(-0.56 -0.5)"/><path class="cls-3" d="M87.22,23.21l.06.89A2.5,2.5,0,0,1,89.37,23c1.54,0,2.34,1.09,2.38,3.25v5.9H89.39V26.46a2,2,0,0,0-.23-1.11.9.9,0,0,0-.8-.34,1.1,1.1,0,0,0-1,.66v6.52H85v-9Z" transform="translate(-0.56 -0.5)"/><path class="cls-3" d="M99.58,21v2.21h1.2V25h-1.2v4.46a1.33,1.33,0,0,0,.14.74.66.66,0,0,0,.56.19,2.83,2.83,0,0,0,.56-.05l0,1.82a3.65,3.65,0,0,1-1.29.23c-1.52,0-2.29-.87-2.3-2.61V25h-1V23.21h1V21Z" transform="translate(-0.56 -0.5)"/><path class="cls-3" d="M101.29,27.41a4.87,4.87,0,0,1,1-3.2A3.26,3.26,0,0,1,104.91,23a3.3,3.3,0,0,1,2.69,1.17,4.89,4.89,0,0,1,1,3.22V28a4.85,4.85,0,0,1-1,3.2,3.66,3.66,0,0,1-5.35,0,4.91,4.91,0,0,1-1-3.22Zm2.35.59c0,1.6.43,2.41,1.29,2.41s1.22-.67,1.28-2v-1a3.84,3.84,0,0,0-.34-1.82,1.07,1.07,0,0,0-1-.6,1,1,0,0,0-.93.6,3.84,3.84,0,0,0-.34,1.82Z" transform="translate(-0.56 -0.5)"/><path class="cls-3" d="M117.2,27.77H116v4.42h-2.44V20.1h3.9a4,4,0,0,1,2.83.95,3.56,3.56,0,0,1,1,2.71,3.52,3.52,0,0,1-1.75,3.37l2.11,4.94v.12H119Zm-1.21-2h1.39a1.25,1.25,0,0,0,1.09-.49,2,2,0,0,0,.37-1.29c0-1.22-.47-1.82-1.42-1.82H116Z" transform="translate(-0.56 -0.5)"/><path class="cls-3" d="M126.21,32.36a3.69,3.69,0,0,1-2.82-1.08,4.37,4.37,0,0,1-1-3.09v-.71a5.1,5.1,0,0,1,.93-3.28A3.23,3.23,0,0,1,126,23a3.06,3.06,0,0,1,2.55,1.08,5.18,5.18,0,0,1,.87,3.21v1.15h-4.67a2.41,2.41,0,0,0,.44,1.46,1.48,1.48,0,0,0,1.2.47,2.64,2.64,0,0,0,2-.81l.92,1.42A3.11,3.11,0,0,1,128,32,4.44,4.44,0,0,1,126.21,32.36Zm-1.47-5.52h2.34v-.21a2.57,2.57,0,0,0-.26-1.22A.92.92,0,0,0,126,25a1,1,0,0,0-.9.44A3.11,3.11,0,0,0,124.74,26.84Z" transform="translate(-0.56 -0.5)"/><path class="cls-3" d="M134.73,32.19a3.28,3.28,0,0,1-.2-.7,2,2,0,0,1-1.71.87,2.53,2.53,0,0,1-1.87-.75,2.64,2.64,0,0,1-.74-1.93,2.73,2.73,0,0,1,.9-2.19,3.94,3.94,0,0,1,2.59-.79h.72V26a1.32,1.32,0,0,0-.21-.85.74.74,0,0,0-.61-.25c-.58,0-.88.34-.88,1h-2.35a2.63,2.63,0,0,1,.94-2.06,3.47,3.47,0,0,1,2.36-.81,3.22,3.22,0,0,1,2.29.77,2.88,2.88,0,0,1,.81,2.2v4.22a4.41,4.41,0,0,0,.33,1.82v.14Zm-1.38-1.68a1.34,1.34,0,0,0,.66-.15,1.16,1.16,0,0,0,.41-.38V28.12h-.57a1.18,1.18,0,0,0-.94.38,1.45,1.45,0,0,0-.34,1Q132.57,30.51,133.35,30.51Z" transform="translate(-0.56 -0.5)"/><path class="cls-3" d="M137.9,27.43a6,6,0,0,1,.74-3.3A2.5,2.5,0,0,1,140.82,23a2.07,2.07,0,0,1,1.72.9v-4.5h2.37V32.19h-2.13l-.11-.91a2.16,2.16,0,0,1-1.86,1.08,2.44,2.44,0,0,1-2.15-1.08,5.64,5.64,0,0,1-.76-3.17Zm2.35.59a4.22,4.22,0,0,0,.29,1.85,1,1,0,0,0,1,.53,1.13,1.13,0,0,0,1-.62V25.67a1.11,1.11,0,0,0-1-.66,1,1,0,0,0-.95.52,4.07,4.07,0,0,0-.3,1.86Z" transform="translate(-0.56 -0.5)"/><path class="cls-3" d="M153.35,20.1l2.28,8.75,2.28-8.75h3.18V32.19h-2.44V28.92l.22-5-2.42,8.31h-1.66l-2.41-8.31.22,5v3.27h-2.44V20.1Z" transform="translate(-0.56 -0.5)"/><path class="cls-3" d="M162.41,27.41a4.87,4.87,0,0,1,1-3.2A3.26,3.26,0,0,1,166,23a3.3,3.3,0,0,1,2.68,1.17,4.89,4.89,0,0,1,1,3.22V28a4.85,4.85,0,0,1-1,3.2,3.66,3.66,0,0,1-5.35,0,4.91,4.91,0,0,1-1-3.22Zm2.35.59c0,1.6.43,2.41,1.29,2.41s1.22-.67,1.28-2v-1a3.84,3.84,0,0,0-.34-1.82,1.06,1.06,0,0,0-1-.6,1,1,0,0,0-.94.6,3.84,3.84,0,0,0-.34,1.82Z" transform="translate(-0.56 -0.5)"/><path class="cls-3" d="M175.32,25.48l-.78-.07a1.29,1.29,0,0,0-1.31.85v5.93h-2.35v-9h2.21l.07,1A1.7,1.7,0,0,1,174.7,23a1.64,1.64,0,0,1,.64.11Z" transform="translate(-0.56 -0.5)"/><path class="cls-3" d="M179.89,32.36a3.69,3.69,0,0,1-2.82-1.08,4.37,4.37,0,0,1-1-3.09v-.71A5.1,5.1,0,0,1,177,24.2,3.23,3.23,0,0,1,179.65,23a3.06,3.06,0,0,1,2.55,1.08,5.18,5.18,0,0,1,.87,3.21v1.15H178.4a2.41,2.41,0,0,0,.44,1.46,1.48,1.48,0,0,0,1.2.47,2.64,2.64,0,0,0,2-.81l.92,1.42a3,3,0,0,1-1.25,1A4.41,4.41,0,0,1,179.89,32.36Zm-1.47-5.52h2.34v-.21a2.57,2.57,0,0,0-.26-1.22.92.92,0,0,0-.86-.42,1,1,0,0,0-.9.44A3.11,3.11,0,0,0,178.42,26.84Z" transform="translate(-0.56 -0.5)"/></svg>