<?xml version="1.0" encoding="utf-8"?>
<!-- Generator: Adobe Illustrator 24.1.0, SVG Export Plug-In . SVG Version: 6.00 Build 0)  -->
<svg version="1.1" id="Layer_1" xmlns="http://www.w3.org/2000/svg" xmlns:xlink="http://www.w3.org/1999/xlink" x="0px" y="0px"
	 viewBox="0 0 197.2 50.8" style="enable-background:new 0 0 197.2 50.8;" xml:space="preserve">
<style type="text/css">
	.st0{fill:#FF0000;}
	.st1{fill:none;stroke:#FFFFFF;stroke-width:2;stroke-miterlimit:10;}
	.st2{fill:#FFFDFD;enable-background:new    ;}
</style>
<path class="st0" d="M24.4,1h148.4c12.9,0,23.4,10.5,23.4,23.4v1.9c0,12.9-10.5,23.4-23.4,23.4H24.4C11.5,49.8,1,39.3,1,26.4v-1.9
	C1,11.5,11.5,1,24.4,1z"/>
<path class="st1" d="M24.4,1h148.4c12.9,0,23.4,10.5,23.4,23.4v1.9c0,12.9-10.5,23.4-23.4,23.4H24.4C11.5,49.8,1,39.3,1,26.4v-1.9
	C1,11.5,11.5,1,24.4,1z"/>
<path class="st2" d="M20.2,28.5c0-0.4-0.1-0.8-0.4-1.1c-0.4-0.3-0.9-0.6-1.4-0.8c-1-0.3-1.9-0.9-2.6-1.6c-0.5-0.6-0.8-1.4-0.8-2.2
	c0-0.9,0.4-1.8,1.1-2.5c0.8-0.6,1.8-1,2.8-0.9c0.7,0,1.4,0.1,2,0.5c0.6,0.3,1,0.8,1.3,1.3c0.3,0.6,0.5,1.3,0.5,1.9h-2.5
	c0-0.5-0.1-0.9-0.4-1.3c-0.3-0.3-0.6-0.5-1-0.4c-0.4,0-0.7,0.1-1,0.4c-0.2,0.3-0.4,0.6-0.4,1c0,0.3,0.1,0.7,0.4,0.9
	c0.4,0.4,0.9,0.6,1.4,0.8c1,0.3,1.9,0.8,2.6,1.6c0.5,0.7,0.8,1.5,0.8,2.4c0.1,0.9-0.3,1.8-1,2.5c-0.8,0.6-1.7,0.9-2.7,0.9
	c-0.7,0-1.5-0.2-2.1-0.5c-0.6-0.3-1.1-0.8-1.5-1.4c-0.4-0.6-0.6-1.4-0.5-2.1h2.5c0,0.5,0.1,1.1,0.4,1.5c0.4,0.3,0.8,0.5,1.3,0.5
	C19.8,29.9,20.2,29.4,20.2,28.5z"/>
<path class="st2" d="M27.1,29.9c0.7,0,1-0.5,1-1.3h2.2c0,0.9-0.3,1.7-0.9,2.4c-0.6,0.6-1.4,0.9-2.3,0.9c-1,0.1-2-0.3-2.6-1.1
	c-0.7-0.9-1-2-0.9-3.2v-0.7c-0.1-1.1,0.2-2.3,0.9-3.2c0.7-0.8,1.7-1.2,2.7-1.2c0.9-0.1,1.7,0.3,2.3,0.9c0.6,0.7,0.9,1.7,0.9,2.6
	h-2.2c0-0.4-0.1-0.8-0.2-1.2c-0.2-0.3-0.5-0.4-0.8-0.4c-0.4,0-0.7,0.1-0.9,0.4C26,25.4,25.9,26,26,26.6v0.9c0,0.5,0,1,0.1,1.5
	c0,0.2,0.2,0.5,0.4,0.6C26.6,29.8,26.9,29.9,27.1,29.9z"/>
<path class="st2" d="M35.9,25l-0.8-0.1c-0.6,0-1.1,0.3-1.3,0.9v5.9h-2.4v-9h2.2l0.1,1c0.2-0.7,0.8-1.2,1.5-1.2c0.2,0,0.4,0,0.7,0.1
	L35.9,25z"/>
<path class="st2" d="M36.3,26.9c-0.1-1.2,0.3-2.3,1-3.2c1.4-1.5,3.7-1.6,5.1-0.2c0.1,0.1,0.1,0.1,0.2,0.2c0.7,0.9,1.1,2.1,1,3.2v0.6
	c0.1,1.2-0.3,2.3-1,3.2c-0.7,0.8-1.6,1.2-2.7,1.2c-1,0.1-2-0.4-2.7-1.2c-0.7-0.9-1-2.1-1-3.2L36.3,26.9z M38.6,27.5
	c0,1.6,0.4,2.4,1.3,2.4s1.2-0.7,1.3-2v-1c0-0.6-0.1-1.3-0.3-1.8c-0.2-0.4-0.6-0.6-1-0.6c-0.4,0-0.8,0.2-0.9,0.6
	c-0.3,0.6-0.4,1.2-0.3,1.8L38.6,27.5z"/>
<path class="st2" d="M47.2,31.7h-2.4V18.9h2.4L47.2,31.7z"/>
<path class="st2" d="M51.2,31.7h-2.4V18.9h2.4V31.7z"/>
<path class="st2" d="M56.6,31.7V19.6h3.2c1.3-0.1,2.5,0.4,3.4,1.4c0.9,1,1.4,2.3,1.3,3.7v2c0.1,1.4-0.4,2.7-1.3,3.7
	c-0.9,0.9-2.2,1.4-3.5,1.4L56.6,31.7z M59,21.7v8h0.7c0.6,0.1,1.3-0.2,1.7-0.7c0.4-0.7,0.6-1.4,0.5-2.2v-2.1
	c0.1-0.8-0.1-1.6-0.5-2.4c-0.4-0.5-1-0.7-1.6-0.7L59,21.7z"/>
<path class="st2" d="M65.5,26.9c-0.1-1.2,0.3-2.3,1-3.2c1.4-1.5,3.7-1.6,5.1-0.2c0.1,0.1,0.1,0.1,0.2,0.2c0.7,0.9,1.1,2.1,1,3.2v0.6
	c0.1,1.2-0.3,2.3-1,3.2c-1.4,1.5-3.7,1.6-5.2,0.2c-0.1-0.1-0.1-0.1-0.2-0.2c-0.7-0.9-1.1-2.1-1-3.2L65.5,26.9z M67.9,27.5
	c0,1.6,0.4,2.4,1.3,2.4s1.2-0.7,1.3-2v-1c0-0.6-0.1-1.3-0.3-1.8c-0.2-0.4-0.6-0.6-1-0.6c-0.4,0-0.8,0.2-0.9,0.6
	c-0.3,0.6-0.4,1.2-0.3,1.8L67.9,27.5z"/>
<path class="st2" d="M80.6,27.8l0.8-5h2.2l-1.9,9h-2l-1.2-5.2l-1.3,5.2h-2l-1.9-9h2.3l0.8,5l1.2-5h1.7L80.6,27.8z"/>
<path class="st2" d="M86.7,22.7l0.1,0.9c0.5-0.7,1.3-1.1,2.1-1.1c1.5,0,2.3,1.1,2.4,3.2v5.9h-2.4V26c0-0.4,0-0.8-0.2-1.1
	c-0.2-0.2-0.5-0.4-0.8-0.3c-0.4,0-0.8,0.3-1,0.7v6.5h-2.4v-9L86.7,22.7z"/>
<path class="st2" d="M99,20.5v2.2h1.2v1.8H99V29c0,0.3,0,0.5,0.1,0.7c0.1,0.1,0.4,0.2,0.6,0.2c0.2,0,0.4,0,0.6,0v1.8
	c-0.4,0.2-0.8,0.2-1.3,0.2c-1.5,0-2.3-0.9-2.3-2.6v-4.8h-1v-1.8h1v-2.2H99z"/>
<path class="st2" d="M100.7,26.9c-0.1-1.2,0.3-2.3,1-3.2c0.6-0.8,1.6-1.2,2.6-1.2c1-0.1,2,0.4,2.7,1.2c0.7,0.9,1.1,2.1,1,3.2v0.6
	c0.1,1.2-0.3,2.3-1,3.2c-1.4,1.5-3.7,1.6-5.2,0.2c-0.1-0.1-0.1-0.1-0.2-0.2c-0.7-0.9-1.1-2.1-1-3.2L100.7,26.9z M103.1,27.5
	c0,1.6,0.4,2.4,1.3,2.4s1.2-0.7,1.3-2v-1c0-0.6-0.1-1.3-0.3-1.8c-0.2-0.4-0.6-0.6-1-0.6c-0.4,0-0.8,0.2-0.9,0.6
	c-0.3,0.6-0.4,1.2-0.3,1.8L103.1,27.5z"/>
<path class="st2" d="M116.6,27.3h-1.2v4.4H113V19.6h3.9c1-0.1,2,0.3,2.8,1c0.7,0.7,1.1,1.7,1,2.7c0.1,1.4-0.6,2.7-1.8,3.4l2.1,4.9
	v0.1h-2.7L116.6,27.3z M115.4,25.3h1.4c0.4,0,0.8-0.2,1.1-0.5c0.3-0.4,0.4-0.8,0.4-1.3c0-1.2-0.5-1.8-1.4-1.8h-1.4L115.4,25.3z"/>
<path class="st2" d="M125.7,31.9c-1.1,0.1-2.1-0.3-2.8-1.1c-0.7-0.9-1.1-2-1-3.1V27c-0.1-1.2,0.3-2.3,0.9-3.3
	c0.6-0.8,1.6-1.3,2.7-1.2c1-0.1,1.9,0.3,2.6,1.1c0.6,0.9,0.9,2.1,0.9,3.2v1.1h-4.7c0,0.5,0.1,1,0.4,1.5c0.3,0.3,0.7,0.5,1.2,0.5
	c0.8,0,1.5-0.3,2-0.8l0.9,1.4c-0.3,0.5-0.8,0.8-1.3,1C126.9,31.7,126.3,31.9,125.7,31.9z M124.2,26.3h2.3v-0.2
	c0-0.4-0.1-0.8-0.3-1.2c-0.2-0.3-0.5-0.4-0.8-0.4c-0.4,0-0.7,0.1-0.9,0.4C124.3,25.4,124.2,25.9,124.2,26.3z"/>
<path class="st2" d="M134.2,31.7c-0.1-0.2-0.2-0.5-0.2-0.7c-0.4,0.6-1,0.9-1.7,0.9c-0.7,0-1.4-0.3-1.9-0.8c-0.5-0.5-0.8-1.2-0.7-1.9
	c0-0.8,0.3-1.6,0.9-2.2c0.7-0.6,1.7-0.8,2.6-0.8h0.7v-0.7c0-0.3,0-0.6-0.2-0.9c-0.2-0.2-0.4-0.3-0.6-0.2c-0.6,0-0.9,0.3-0.9,1h-2.4
	c0-0.8,0.3-1.6,0.9-2.1c0.7-0.6,1.5-0.8,2.4-0.8c0.8-0.1,1.7,0.2,2.3,0.8c0.6,0.6,0.9,1.4,0.8,2.2v4.2c0,0.6,0.1,1.2,0.3,1.8v0.1
	L134.2,31.7z M132.8,30c0.2,0,0.5,0,0.7-0.1c0.2-0.1,0.3-0.2,0.4-0.4v-1.9h-0.6c-0.4,0-0.7,0.1-0.9,0.4c-0.2,0.3-0.4,0.6-0.3,1
	C132,29.7,132.3,30,132.8,30L132.8,30z"/>
<path class="st2" d="M137.3,26.9c-0.1-1.1,0.2-2.3,0.7-3.3c0.5-0.7,1.3-1.2,2.2-1.1c0.7,0,1.3,0.3,1.7,0.9v-4.5h2.4v12.8h-2.1
	l-0.1-0.9c-0.4,0.7-1.1,1.1-1.9,1.1c-0.9,0-1.7-0.4-2.1-1.1c-0.6-1-0.8-2.1-0.8-3.2L137.3,26.9z M139.7,27.5c0,0.6,0.1,1.3,0.3,1.9
	c0.2,0.4,0.6,0.6,1,0.5c0.4,0,0.8-0.2,1-0.6v-4.1c-0.2-0.4-0.6-0.7-1-0.7c-0.4,0-0.8,0.2-0.9,0.5c-0.2,0.6-0.3,1.2-0.3,1.9
	L139.7,27.5z"/>
<path class="st2" d="M152.8,19.6l2.3,8.8l2.3-8.8h3.2v12.1h-2.4v-3.3l0.2-5l-2.4,8.3h-1.7l-2.4-8.3l0.2,5v3.3h-2.4V19.6H152.8z"/>
<path class="st2" d="M161.9,26.9c-0.1-1.2,0.3-2.3,1-3.2c0.6-0.8,1.6-1.2,2.6-1.2c1,0,2,0.4,2.7,1.2c0.7,0.9,1.1,2.1,1,3.2v0.6
	c0.1,1.2-0.3,2.3-1,3.2c-1.4,1.5-3.7,1.6-5.2,0.2c-0.1-0.1-0.1-0.1-0.2-0.2c-0.7-0.9-1.1-2.1-1-3.2L161.9,26.9z M164.2,27.5
	c0,1.6,0.4,2.4,1.3,2.4s1.2-0.7,1.3-2v-1c0-0.6-0.1-1.3-0.3-1.8c-0.2-0.4-0.6-0.6-1-0.6c-0.4,0-0.8,0.2-0.9,0.6
	c-0.3,0.6-0.4,1.2-0.3,1.8L164.2,27.5z"/>
<path class="st2" d="M174.8,25l-0.8-0.1c-0.6,0-1.1,0.3-1.3,0.9v5.9h-2.4v-9h2.2l0.1,1c0.2-0.7,0.8-1.2,1.5-1.2c0.2,0,0.4,0,0.6,0.1
	L174.8,25z"/>
<path class="st2" d="M179.3,31.9c-1.1,0.1-2.1-0.3-2.8-1.1c-0.7-0.9-1.1-2-1-3.1V27c-0.1-1.2,0.3-2.3,0.9-3.3
	c0.6-0.8,1.6-1.2,2.6-1.2c1-0.1,1.9,0.3,2.6,1.1c0.6,0.9,0.9,2.1,0.9,3.2v1.1h-4.7c0,0.5,0.1,1,0.4,1.5c0.3,0.3,0.7,0.5,1.2,0.5
	c0.8,0,1.5-0.3,2-0.8l0.9,1.4c-0.3,0.4-0.8,0.8-1.2,1C180.6,31.7,180,31.9,179.3,31.9z M177.9,26.3h2.3v-0.2c0-0.4-0.1-0.8-0.3-1.2
	c-0.2-0.3-0.5-0.5-0.9-0.4c-0.4,0-0.7,0.1-0.9,0.4C178,25.4,177.9,25.9,177.9,26.3z"/>
</svg>
